<svg width="100" height="32" viewBox="0 0 100 32" fill="none" xmlns="http://www.w3.org/2000/svg">
<path d="M2.68453 13.1547C3.077 12.5112 3.59507 12.0133 4.23873 11.6609C4.89809 11.2932 5.67519 11.1093 6.57003 11.1093V13.8211H5.88713C4.83529 13.8211 4.03464 14.0816 3.48518 14.6025C2.95141 15.1234 2.68453 16.0273 2.68453 17.3143V23.9789H0V11.3162H2.68453V13.1547Z" fill="#ED1C25"/>
<path d="M20.4822 17.3373C20.4822 17.8122 20.4508 18.2412 20.388 18.6242H10.4741C10.5526 19.6354 10.9372 20.4474 11.628 21.0603C12.3187 21.6731 13.1665 21.9795 14.1712 21.9795C15.6155 21.9795 16.636 21.3897 17.2325 20.2099H20.129C19.7365 21.3743 19.0222 22.3319 17.9861 23.0826C16.9657 23.818 15.694 24.1857 14.1712 24.1857C12.931 24.1857 11.8164 23.9176 10.8273 23.3814C9.854 22.8298 9.08475 22.0638 8.51959 21.0832C7.97012 20.0874 7.69539 18.9383 7.69539 17.636C7.69539 16.3338 7.96228 15.1923 8.49604 14.2118C9.04551 13.216 9.80691 12.4499 10.7802 11.9137C11.7693 11.3774 12.8996 11.1093 14.1712 11.1093C15.3958 11.1093 16.4868 11.3698 17.4445 11.8907C18.4021 12.4116 19.1478 13.147 19.6816 14.0969C20.2153 15.0315 20.4822 16.1116 20.4822 17.3373ZM17.68 16.5099C17.6643 15.5447 17.311 14.771 16.6203 14.1888C15.9295 13.6066 15.0739 13.3155 14.0535 13.3155C13.1272 13.3155 12.3344 13.6066 11.6751 14.1888C11.0157 14.7557 10.6233 15.5294 10.4977 16.5099H17.68Z" fill="#ED1C25"/>
<path d="M25.3612 13.1777C25.8165 12.5955 26.4366 12.1052 27.2215 11.7068C28.0065 11.3085 28.8935 11.1093 29.8825 11.1093C31.0128 11.1093 32.0411 11.3851 32.9673 11.9367C33.9093 12.4729 34.6471 13.2313 35.1809 14.2118C35.7147 15.1923 35.9816 16.3184 35.9816 17.5901C35.9816 18.8617 35.7147 20.0031 35.1809 21.0143C34.6471 22.0102 33.9093 22.7915 32.9673 23.3584C32.0411 23.9099 31.0128 24.1857 29.8825 24.1857C28.8935 24.1857 28.0143 23.9942 27.2451 23.6112C26.4758 23.2128 25.8479 22.7226 25.3612 22.1404V30H22.6767V11.3162H25.3612V13.1777ZM33.2499 17.5901C33.2499 16.7168 33.0615 15.9661 32.6848 15.3379C32.3237 14.6944 31.837 14.2118 31.2248 13.8901C30.6282 13.553 29.9845 13.3845 29.2938 13.3845C28.6187 13.3845 27.9751 13.553 27.3628 13.8901C26.7662 14.2271 26.2796 14.7174 25.9028 15.3609C25.5417 16.0044 25.3612 16.7627 25.3612 17.636C25.3612 18.5093 25.5417 19.2754 25.9028 19.9342C26.2796 20.5776 26.7662 21.0679 27.3628 21.405C27.9751 21.742 28.6187 21.9106 29.2938 21.9106C29.9845 21.9106 30.6282 21.742 31.2248 21.405C31.837 21.0526 32.3237 20.547 32.6848 19.8882C33.0615 19.2294 33.2499 18.4634 33.2499 17.5901Z" fill="white"/>
<path d="M43.817 24.1857C42.5924 24.1857 41.4857 23.9176 40.4966 23.3814C39.5076 22.8298 38.7305 22.0638 38.1653 21.0832C37.6001 20.0874 37.3176 18.9383 37.3176 17.636C37.3176 16.3491 37.608 15.2077 38.1889 14.2118C38.7697 13.216 39.5625 12.4499 40.5673 11.9137C41.572 11.3774 42.6945 11.1093 43.9347 11.1093C45.1749 11.1093 46.2974 11.3774 47.3021 11.9137C48.3069 12.4499 49.0997 13.216 49.6805 14.2118C50.2614 15.2077 50.5518 16.3491 50.5518 17.636C50.5518 18.923 50.2535 20.0644 49.657 21.0603C49.0604 22.0561 48.2441 22.8298 47.2079 23.3814C46.1875 23.9176 45.0572 24.1857 43.817 24.1857ZM43.817 21.9106C44.5077 21.9106 45.1514 21.7497 45.7479 21.428C46.3602 21.1062 46.8547 20.6236 47.2315 19.9801C47.6083 19.3367 47.7966 18.5553 47.7966 17.636C47.7966 16.7168 47.6161 15.9431 47.255 15.3149C46.894 14.6714 46.4151 14.1888 45.8186 13.8671C45.222 13.5454 44.5784 13.3845 43.8876 13.3845C43.1968 13.3845 42.5532 13.5454 41.9566 13.8671C41.3758 14.1888 40.9126 14.6714 40.5673 15.3149C40.2219 15.9431 40.0492 16.7168 40.0492 17.636C40.0492 18.9996 40.4024 20.0567 41.1089 20.8075C41.831 21.5429 42.7337 21.9106 43.817 21.9106Z" fill="white"/>
<path d="M55.4427 13.1547C55.8352 12.5112 56.3533 12.0133 56.9969 11.6609C57.6563 11.2932 58.4334 11.1093 59.3282 11.1093V13.8211H58.6453C57.5935 13.8211 56.7928 14.0816 56.2434 14.6025C55.7096 15.1234 55.4427 16.0273 55.4427 17.3143V23.9789H52.7582V11.3162H55.4427V13.1547Z" fill="white"/>
<path d="M67.8949 11.1093C68.9154 11.1093 69.8259 11.3162 70.6266 11.7298C71.4429 12.1435 72.0787 12.7563 72.534 13.5683C72.9893 14.3803 73.2169 15.3609 73.2169 16.5099V23.9789H70.5559V16.9006C70.5559 15.7669 70.2655 14.9013 69.6846 14.3037C69.1038 13.6909 68.311 13.3845 67.3062 13.3845C66.3015 13.3845 65.5008 13.6909 64.9043 14.3037C64.3234 14.9013 64.033 15.7669 64.033 16.9006V23.9789H61.3484V11.3162H64.033V12.764C64.4725 12.2431 65.0299 11.8371 65.7049 11.546C66.3957 11.2549 67.1257 11.1093 67.8949 11.1093Z" fill="white"/>
<path d="M77.277 24.1398C76.7903 24.1398 76.3821 23.9789 76.0525 23.6571C75.7228 23.3354 75.5579 22.9371 75.5579 22.4621C75.5579 21.9872 75.7228 21.5888 76.0525 21.2671C76.3821 20.9453 76.7903 20.7845 77.277 20.7845C77.7479 20.7845 78.1483 20.9453 78.478 21.2671C78.8076 21.5888 78.9725 21.9872 78.9725 22.4621C78.9725 22.9371 78.8076 23.3354 78.478 23.6571C78.1483 23.9789 77.7479 24.1398 77.277 24.1398Z" fill="white"/>
<path d="M80.5316 17.5901C80.5316 16.3184 80.7985 15.1923 81.3323 14.2118C81.8818 13.2313 82.6196 12.4729 83.5458 11.9367C84.4878 11.3851 85.5239 11.1093 86.6543 11.1093C87.6747 11.1093 88.5617 11.3085 89.3152 11.7068C90.0845 12.0899 90.6967 12.5725 91.152 13.1547V11.3162H93.8601V23.9789H91.152V22.0944C90.6967 22.6919 90.0766 23.1899 89.2917 23.5882C88.5067 23.9865 87.6119 24.1857 86.6071 24.1857C85.4925 24.1857 84.4721 23.9099 83.5458 23.3584C82.6196 22.7915 81.8818 22.0102 81.3323 21.0143C80.7985 20.0031 80.5316 18.8617 80.5316 17.5901ZM91.152 17.636C91.152 16.7627 90.9636 16.0044 90.5869 15.3609C90.2258 14.7174 89.7469 14.2271 89.1504 13.8901C88.5538 13.553 87.9102 13.3845 87.2194 13.3845C86.5287 13.3845 85.885 13.553 85.2884 13.8901C84.6919 14.2118 84.2052 14.6944 83.8284 15.3379C83.4673 15.9661 83.2868 16.7168 83.2868 17.5901C83.2868 18.4634 83.4673 19.2294 83.8284 19.8882C84.2052 20.547 84.6919 21.0526 85.2884 21.405C85.9007 21.742 86.5444 21.9106 87.2194 21.9106C87.9102 21.9106 88.5538 21.742 89.1504 21.405C89.7469 21.0679 90.2258 20.5776 90.5869 19.9342C90.9636 19.2754 91.152 18.5093 91.152 17.636Z" fill="white"/>
<path d="M98.3045 9.63852C97.8178 9.63852 97.4097 9.47765 97.08 9.15591C96.7503 8.83418 96.5855 8.43583 96.5855 7.96088C96.5855 7.48594 96.7503 7.08759 97.08 6.76585C97.4097 6.44412 97.8178 6.28325 98.3045 6.28325C98.7755 6.28325 99.1758 6.44412 99.5055 6.76585C99.8351 7.08759 100 7.48594 100 7.96088C100 8.43583 99.8351 8.83418 99.5055 9.15591C99.1758 9.47765 98.7755 9.63852 98.3045 9.63852ZM99.6232 11.3162V23.9789H96.9387V11.3162H99.6232Z" fill="white"/>
<path d="M9.27248 10.3482C9.06067 10.3584 8.85379 10.1316 8.74296 10.0041C8.5841 9.82143 8.18696 9.32861 7.86925 8.81879C7.4721 8.18152 7.16763 7.51876 7.06172 6.0148C6.95582 4.51084 7.61772 2.67551 7.85601 2C7.88248 2.93041 8.46496 4.11574 8.92829 4.80399C9.39162 5.49224 10.4639 6.12951 11.3111 6.42265C12.1584 6.7158 11.9466 7.09816 11.8142 7.77367C11.6818 8.44917 11.3906 9.08644 10.7551 9.67273C10.1197 10.259 9.53724 10.3355 9.27248 10.3482Z" fill="#ED1C25"/>
<path d="M18.5727 10.3482C18.7807 10.3584 18.9839 10.1316 19.0928 10.0041C19.2488 9.82143 19.6388 9.32861 19.9509 8.81879C20.3409 8.18152 20.64 7.51876 20.744 6.0148C20.848 4.51084 20.1979 2.67551 19.9639 2C19.9379 2.93041 19.3658 4.11574 18.9107 4.80399C18.4557 5.49224 17.4025 6.12951 16.5704 6.42265C15.7383 6.7158 15.9464 7.09816 16.0764 7.77367C16.2064 8.44917 16.4924 9.08644 17.1165 9.67273C17.7406 10.259 18.3127 10.3355 18.5727 10.3482Z" fill="#ED1C25"/>
</svg>
