<svg width="18" height="17" viewBox="0 0 18 17" fill="none" xmlns="http://www.w3.org/2000/svg">
<path d="M0.875 3.65625H17.125C17.4375 3.65625 17.75 3.38281 17.75 3.03125V1.46875C17.75 1.15625 17.4375 0.84375 17.125 0.84375H0.875C0.523438 0.84375 0.25 1.15625 0.25 1.46875V3.03125C0.25 3.38281 0.523438 3.65625 0.875 3.65625ZM0.875 9.90625H17.125C17.4375 9.90625 17.75 9.63281 17.75 9.28125V7.71875C17.75 7.40625 17.4375 7.09375 17.125 7.09375H0.875C0.523438 7.09375 0.25 7.40625 0.25 7.71875V9.28125C0.25 9.63281 0.523438 9.90625 0.875 9.90625ZM0.875 16.1562H17.125C17.4375 16.1562 17.75 15.8828 17.75 15.5312V13.9688C17.75 13.6562 17.4375 13.3438 17.125 13.3438H0.875C0.523438 13.3438 0.25 13.6562 0.25 13.9688V15.5312C0.25 15.8828 0.523438 16.1562 0.875 16.1562Z" fill="white"/>
</svg>
